<?xml version="1.0" encoding="UTF-8" standalone="no"?>
<!-- Uploaded to: SVG Repo, www.svgrepo.com, Generator: SVG Repo Mixer Tools -->

<svg
   fill="#000000"
   width="800px"
   height="800px"
   viewBox="-274.15 0 1200 1200"
   class="cf-icon-svg"
   version="1.1"
   id="svg2"
   sodipodi:docname="doc.svg"
   inkscape:version="1.4 (86a8ad7, 2024-10-11)"
   xmlns:inkscape="http://www.inkscape.org/namespaces/inkscape"
   xmlns:sodipodi="http://sodipodi.sourceforge.net/DTD/sodipodi-0.dtd"
   xmlns="http://www.w3.org/2000/svg"
   xmlns:svg="http://www.w3.org/2000/svg">
  <defs
     id="defs2" />
  <sodipodi:namedview
     id="namedview2"
     pagecolor="#ffffff"
     bordercolor="#000000"
     borderopacity="0.25"
     inkscape:showpageshadow="2"
     inkscape:pageopacity="0.0"
     inkscape:pagecheckerboard="0"
     inkscape:deskcolor="#d1d1d1"
     inkscape:zoom="0.72036503"
     inkscape:cx="236.68556"
     inkscape:cy="442.13695"
     inkscape:window-width="1920"
     inkscape:window-height="1017"
     inkscape:window-x="-8"
     inkscape:window-y="-8"
     inkscape:window-maximized="1"
     inkscape:current-layer="svg2" />
  <path
     d="M30 161c-16.5 0-30 13.5-30 30v827.8c0 16.5 13.5 30 30 30h591.7c16.5 0 30-13.5 30-30V343.7L469 161H30zm389.6 60v134.8c0 19.9 16.3 36.2 36.2 36.2h135.9v596.8H60V221h359.6z"
     id="path1"
     style="fill:#ffffff" />
  <path
     d="M123.8 768.6h394.8v50H123.8zm0-124.6h394.8v50H123.8zm0-124.5h394.8v50H123.8z"
     id="path2"
     style="fill:#ffffff" />
  <circle
     cx="194"
     cy="382.3"
     r="60"
     id="circle2"
     style="fill:#ffffff" />
</svg>
